<svg xmlns="http://www.w3.org/2000/svg" xmlns:xlink="http://www.w3.org/1999/xlink" viewBox="0 0 581.09 144"><defs><style>.cls-1{fill:none;clip-rule:evenodd;}.cls-182,.cls-183,.cls-184,.cls-2,.cls-3{fill-rule:evenodd;}.cls-2{fill:url(#mg_4);}.cls-3{fill:url(#mg_2);}.cls-4{clip-path:url(#clip-path);}.cls-5{fill:#160034;}.cls-6{fill:#170035;}.cls-7{fill:#180035;}.cls-8{fill:#190136;}.cls-9{fill:#1a0136;}.cls-10{fill:#1b0137;}.cls-11{fill:#1c0137;}.cls-12{fill:#1d0138;}.cls-13{fill:#1e0139;}.cls-14{fill:#1f0239;}.cls-15{fill:#20023a;}.cls-16{fill:#21023a;}.cls-17{fill:#22023b;}.cls-18{fill:#23023b;}.cls-19{fill:#24033c;}.cls-20{fill:#25033d;}.cls-21{fill:#26033d;}.cls-22{fill:#27033e;}.cls-23{fill:#28033e;}.cls-24{fill:#29043f;}.cls-25{fill:#2a043f;}.cls-26{fill:#2b0440;}.cls-27{fill:#2c0440;}.cls-28{fill:#2d0441;}.cls-29{fill:#2e0442;}.cls-30{fill:#2f0542;}.cls-31{fill:#300543;}.cls-32{fill:#310543;}.cls-33{fill:#320544;}.cls-34{fill:#330544;}.cls-35{fill:#340645;}.cls-36{fill:#350646;}.cls-37{fill:#360646;}.cls-38{fill:#370647;}.cls-39{fill:#380647;}.cls-40{fill:#390648;}.cls-41{fill:#3a0748;}.cls-42{fill:#3b0749;}.cls-43{fill:#3c074a;}.cls-44{fill:#3d074a;}.cls-45{fill:#3e074b;}.cls-46{fill:#40084b;}.cls-47{fill:#41084c;}.cls-48{fill:#42084c;}.cls-49{fill:#43084d;}.cls-50{fill:#44084e;}.cls-51{fill:#45094e;}.cls-52{fill:#46094f;}.cls-53{fill:#47094f;}.cls-54{fill:#480950;}.cls-55{fill:#490950;}.cls-56{fill:#4a0951;}.cls-57{fill:#4b0a52;}.cls-58{fill:#4c0a52;}.cls-59{fill:#4d0a53;}.cls-60{fill:#4e0a53;}.cls-61{fill:#4f0a54;}.cls-62{fill:#500b54;}.cls-63{fill:#510b55;}.cls-64{fill:#520b56;}.cls-65{fill:#530b56;}.cls-66{fill:#540b57;}.cls-67{fill:#550b57;}.cls-68{fill:#560c58;}.cls-69{fill:#570c58;}.cls-70{fill:#580c59;}.cls-71{fill:#590c59;}.cls-72{fill:#5a0c5a;}.cls-73{fill:#5b0d5b;}.cls-74{fill:#5c0d5b;}.cls-75{fill:#5d0d5c;}.cls-76{fill:#5e0d5c;}.cls-77{fill:#5f0d5d;}.cls-78{fill:#600e5d;}.cls-79{fill:#610e5e;}.cls-80{fill:#620e5f;}.cls-81{fill:#630e5f;}.cls-82{fill:#640e60;}.cls-83{fill:#650e60;}.cls-84{fill:#660f61;}.cls-85{fill:#670f61;}.cls-86{fill:#680f62;}.cls-87{fill:#680f63;}.cls-88{fill:#680f64;}.cls-89{fill:#680f65;}.cls-90{fill:#680f66;}.cls-91{fill:#680f67;}.cls-92{fill:#680f68;}.cls-93{fill:#680f69;}.cls-94{fill:#680f6a;}.cls-95{fill:#680f6b;}.cls-96{fill:#680f6c;}.cls-97{fill:#680f6d;}.cls-98{fill:#690f6e;}.cls-99{fill:#690f6f;}.cls-100{fill:#690f70;}.cls-101{fill:#690f71;}.cls-102{fill:#690f72;}.cls-103{fill:#690f73;}.cls-104{fill:#690f74;}.cls-105{fill:#690f75;}.cls-106{fill:#690f76;}.cls-107{fill:#690f77;}.cls-108{fill:#690f78;}.cls-109{fill:#690f79;}.cls-110{fill:#69107a;}.cls-111{fill:#69107b;}.cls-112{fill:#69107c;}.cls-113{fill:#69107d;}.cls-114{fill:#69107e;}.cls-115{fill:#69107f;}.cls-116{fill:#691080;}.cls-117{fill:#691081;}.cls-118{fill:#691082;}.cls-119{fill:#691083;}.cls-120{fill:#691084;}.cls-121{fill:#691085;}.cls-122{fill:#6a1086;}.cls-123{fill:#6a1087;}.cls-124{fill:#6a1088;}.cls-125{fill:#6a1089;}.cls-126{fill:#6a108a;}.cls-127{fill:#6a108b;}.cls-128{fill:#6a108c;}.cls-129{fill:#6a108d;}.cls-130{fill:#6a108e;}.cls-131{fill:#6a108f;}.cls-132{fill:#6a1090;}.cls-133{fill:#6a1091;}.cls-134{fill:#6a1093;}.cls-135{fill:#6a1094;}.cls-136{fill:#6a1095;}.cls-137{fill:#6a1096;}.cls-138{fill:#6a1097;}.cls-139{fill:#6a1098;}.cls-140{fill:#6a1099;}.cls-141{fill:#6a109a;}.cls-142{fill:#6a109b;}.cls-143{fill:#6a109c;}.cls-144{fill:#6a109d;}.cls-145{fill:#6a109e;}.cls-146{fill:#6b109f;}.cls-147{fill:#6b10a0;}.cls-148{fill:#6b10a1;}.cls-149{fill:#6b10a2;}.cls-150{fill:#6b10a3;}.cls-151{fill:#6b10a4;}.cls-152{fill:#6b10a5;}.cls-153{fill:#6b10a6;}.cls-154{fill:#6b10a7;}.cls-155{fill:#6b10a8;}.cls-156{fill:#6b10a9;}.cls-157{fill:#6b10aa;}.cls-158{fill:#6b11ab;}.cls-159{fill:#6b11ac;}.cls-160{fill:#6b11ad;}.cls-161{fill:#6b11ae;}.cls-162{fill:#6b11af;}.cls-163{fill:#6b11b0;}.cls-164{fill:#6b11b1;}.cls-165{fill:#6b11b2;}.cls-166{fill:#6b11b3;}.cls-167{fill:#6b11b4;}.cls-168{fill:#6b11b5;}.cls-169{fill:#6b11b6;}.cls-170{fill:#6c11b7;}.cls-171{fill:#6c11b8;}.cls-172{fill:#6c11b9;}.cls-173{fill:#6c11ba;}.cls-174{fill:#6c11bb;}.cls-175{fill:#6c11bc;}.cls-176{fill:#6c11bd;}.cls-177{fill:#6c11be;}.cls-178{fill:#6c11bf;}.cls-179{fill:#6c11c0;}.cls-180{fill:#6c11c1;}.cls-181{fill:#6c11c2;}.cls-182{fill:url(#mg_4-2);}.cls-183{fill:url(#mg_2-2);}.cls-184{fill:url(#mg_2-3);}.cls-185{font-size:75.72px;font-family:MSReferenceSansSerif, MS Reference Sans Serif;letter-spacing:-0.05em;}.cls-186{letter-spacing:0em;}.cls-187{font-size:41px;font-family:Roboto-Regular, Roboto;}</style><radialGradient id="mg_4" cx="-3892.36" cy="-3659.16" r="185.68" gradientTransform="matrix(-0.45, 0.68, -0.56, -0.56, -3747.84, 606.09)" gradientUnits="userSpaceOnUse"><stop offset="0" stop-color="#ed259f"/><stop offset="1" stop-color="#8b0034"/></radialGradient><radialGradient id="mg_2" cx="-3879.59" cy="-3736.98" r="71.52" gradientTransform="matrix(-0.45, 0.68, -0.56, -0.56, -3747.84, 606.09)" gradientUnits="userSpaceOnUse"><stop offset="0" stop-color="#6c11c2"/><stop offset="0.42" stop-color="#680f62"/><stop offset="1" stop-color="#160034"/></radialGradient><clipPath id="clip-path"><path class="cls-1" d="M21.54,61.73C28.2,78,33,96.11,44.85,107.77c14.74,14.5,35.9,15.79,44.76,16.61A25.06,25.06,0,0,0,95.94,127c-47,3.42-59.74-17.56-65.41-33.53-2.72-7.67-5.3-20.84-9-31.73Z"/></clipPath><radialGradient id="mg_4-2" cx="-821.24" cy="-1926.48" r="186.9" gradientTransform="matrix(0.45, -0.68, 0.56, 0.56, 1533.17, 633.85)" xlink:href="#mg_4"/><radialGradient id="mg_2-2" cx="-808.55" cy="-1994.54" r="71.42" gradientTransform="matrix(0.45, -0.68, 0.56, 0.56, 1533.17, 633.85)" xlink:href="#mg_2"/><radialGradient id="mg_2-3" cx="-763.39" cy="-2938.49" r="77" gradientTransform="matrix(0.45, -0.68, 0.65, 0.66, 2342.97, 1456.92)" xlink:href="#mg_2"/></defs><g id="Layer_2" data-name="Layer 2"><g id="_28" data-name="28"><path class="cls-2" d="M134.85,111.28C109.29,147,62,154.6,29.15,128.55,4.28,108.78-5.19,75.2,2.73,44.73c16-11.54,20.83,29.21,26.58,45,5.44,15.32,17.63,35.46,62.79,32.18-11.06-2.54-15.36-12.75-8.8-17.46,10.34-7.66,29.91,23.62,53.21,4.58-.61.75-1,1.49-1.66,2.25Z"/><path class="cls-3" d="M89.61,124.38c-6.63-4.24-8.27-11.74-2.84-15.58,10.77-8,31.16,24.61,55.43,4.77a25.13,25.13,0,0,1-17.52,8.21c-5.88.35-21.67-7.28-29.69-10-8.4-2.72-13.23,5.92-5.38,12.63Z"/><g class="cls-4"><rect class="cls-5" x="21.54" y="61.73" width="74.4" height="68.67"/><path class="cls-5" d="M47.69,82.23c24.15-1,44.34,13.58,45.1,32.49a27.9,27.9,0,0,1-2.91,13.46,32.34,32.34,0,0,1-3.8,6v-3.26h-65V91.16h-.87c1-.74,2.15-1.44,3.28-2.11a48.6,48.6,0,0,1,7.31-3.45A54.2,54.2,0,0,1,47.69,82.23Z"/><path class="cls-6" d="M47.7,82.47c24-1,44,13.48,44.78,32.26a27.7,27.7,0,0,1-2.89,13.36A32,32,0,0,1,85.82,134v-3.14H21.06V91.34h-.67c1-.74,2.13-1.43,3.26-2.09a47.79,47.79,0,0,1,7.25-3.43A53.84,53.84,0,0,1,47.7,82.47Z"/><path class="cls-7" d="M47.71,82.71c23.81-.95,43.71,13.39,44.46,32A27.56,27.56,0,0,1,89.3,128a31.43,31.43,0,0,1-3.74,5.89v-3H21.06V91.52h-.47c1-.73,2.12-1.42,3.24-2.08A48.07,48.07,0,0,1,31,86,53.42,53.42,0,0,1,47.71,82.71Z"/><path class="cls-8" d="M47.72,83c23.64-.95,43.4,13.29,44.14,31.79A27.44,27.44,0,0,1,89,127.93a33,33,0,0,1-3.72,5.85v-2.89H21.06V94H17.85C25.35,87.61,35.9,83.43,47.72,83Z"/><path class="cls-9" d="M47.73,83.2c23.46-.94,43.08,13.19,43.82,31.56a27.18,27.18,0,0,1-2.82,13.09,32.43,32.43,0,0,1-3.69,5.8v-2.76h-64V94.14h-3C25.52,87.82,36,83.67,47.73,83.2Z"/><path class="cls-10" d="M47.74,83.44c23.29-.93,42.77,13.1,43.5,31.34a26.85,26.85,0,0,1-2.8,13,31.55,31.55,0,0,1-3.67,5.77v-2.64H21.06V94.31H18.3C25.69,88,36.09,83.91,47.74,83.44Z"/><path class="cls-11" d="M47.75,83.68c23.12-.92,42.45,13,43.18,31.11a26.76,26.76,0,0,1-2.78,12.89,31,31,0,0,1-3.64,5.72v-2.51H21.06V94.47H18.52C25.86,88.23,36.18,84.14,47.75,83.68Z"/><path class="cls-12" d="M47.76,83.92C70.71,83,89.9,96.83,90.62,114.8a26.51,26.51,0,0,1-2.76,12.8,30.56,30.56,0,0,1-3.61,5.68v-2.39H21.06V94.63H18.75C26,88.44,36.28,84.38,47.76,83.92Z"/><path class="cls-13" d="M47.77,84.17C70.55,83.26,89.6,97,90.31,114.81a26.26,26.26,0,0,1-2.74,12.71A30.55,30.55,0,0,1,84,133.15v-2.26H21.06V94.79H19C26.21,88.65,36.37,84.62,47.77,84.17Z"/><path class="cls-14" d="M47.78,84.41C70.39,83.5,89.29,97.12,90,114.83a26.07,26.07,0,0,1-2.72,12.6,31,31,0,0,1-3.55,5.6v-2.14H21.06V95H19.2C26.38,88.86,36.47,84.86,47.78,84.41Z"/><path class="cls-15" d="M47.79,84.65c22.44-.9,41.2,12.62,41.9,30.19A25.81,25.81,0,0,1,87,127.35a30.5,30.5,0,0,1-3.52,5.55v-2H21.06V95.12H19.42C26.55,89.07,36.56,85.1,47.79,84.65Z"/><path class="cls-16" d="M47.79,84.89c22.28-.89,40.9,12.52,41.59,30a25.67,25.67,0,0,1-2.67,12.42,31.05,31.05,0,0,1-3.51,5.51v-1.89H21.06V95.28H19.65C26.72,89.27,36.66,85.34,47.79,84.89Z"/><path class="cls-17" d="M47.81,85.13c22.1-.88,40.57,12.43,41.26,29.73a25.49,25.49,0,0,1-2.65,12.32,29.89,29.89,0,0,1-3.48,5.47v-1.76H21.06V95.44H19.88C26.89,89.48,36.75,85.58,47.81,85.13Z"/><path class="cls-18" d="M47.82,85.38c21.92-.88,40.26,12.33,40.95,29.5a25.35,25.35,0,0,1-2.64,12.22,29.76,29.76,0,0,1-3.45,5.43v-1.64H21.06V95.61h-1C27.06,89.69,36.85,85.82,47.82,85.38Z"/><path class="cls-19" d="M47.82,85.62c21.76-.87,39.95,12.23,40.64,29.27A25.09,25.09,0,0,1,85.84,127a29.57,29.57,0,0,1-3.42,5.38v-1.51H21.06V95.77h-.73C27.23,89.9,36.94,86.06,47.82,85.62Z"/><path class="cls-20" d="M47.83,85.86C69.42,85,87.47,98,88.15,114.9a24.92,24.92,0,0,1-2.6,12,29.18,29.18,0,0,1-3.39,5.35v-1.39H21.06v-35h-.51C27.4,90.11,37,86.29,47.83,85.86Z"/><path class="cls-21" d="M47.84,86.1c21.42-.85,39.33,12.05,40,28.81a24.8,24.8,0,0,1-2.58,11.94,28.9,28.9,0,0,1-3.37,5.3v-1.26H21.06V96.09h-.28C27.58,90.32,37.14,86.53,47.84,86.1Z"/><path class="cls-22" d="M47.85,86.35c21.25-.85,39,11.94,39.68,28.57A24.55,24.55,0,0,1,85,126.77,28.77,28.77,0,0,1,81.63,132v-1.14H21.06V96.25H21C27.75,90.53,37.23,86.77,47.85,86.35Z"/><path class="cls-23" d="M47.86,86.59c21.08-.85,38.7,11.85,39.36,28.35a24.53,24.53,0,0,1-2.53,11.75,28.83,28.83,0,0,1-3.32,5.21v-1H21.06V98.64H18.85c.75-.77,1.54-1.51,2.38-2.22C27.92,90.73,37.33,87,47.86,86.59Z"/><path class="cls-24" d="M47.87,86.83C68.78,86,86.26,98.58,86.91,115A24.21,24.21,0,0,1,84.4,126.6a28.37,28.37,0,0,1-3.29,5.17v-.88h-60V98.78h-2c.74-.76,1.53-1.5,2.36-2.2C28.09,90.94,37.42,87.25,47.87,86.83Z"/><path class="cls-25" d="M47.88,87.07C68.62,86.24,86,98.73,86.6,115a24,24,0,0,1-2.49,11.56,28.45,28.45,0,0,1-3.26,5.13v-.76H21.06v-32H19.34q1.11-1.14,2.34-2.19C28.26,91.15,37.52,87.49,47.88,87.07Z"/><path class="cls-26" d="M47.89,87.31c20.57-.82,37.76,11.57,38.4,27.66a23.82,23.82,0,0,1-2.47,11.47,27.84,27.84,0,0,1-3.24,5.09v-.64H21.06V99.07H19.59c.73-.75,1.5-1.47,2.32-2.16C28.43,91.36,37.61,87.73,47.89,87.31Z"/><path class="cls-27" d="M47.9,87.56C68.29,86.74,85.34,99,86,115a23.58,23.58,0,0,1-2.45,11.37,27.31,27.31,0,0,1-3.21,5v-.51H21.06V101.53H17.79a31.46,31.46,0,0,1,4.34-4.46C28.61,91.57,37.71,88,47.9,87.56Z"/><path class="cls-28" d="M47.91,87.8C68.13,87,85,99.17,85.67,115a23.26,23.26,0,0,1-2.43,11.27,27.57,27.57,0,0,1-3.18,5v-.38h-59V101.65h-3a30.88,30.88,0,0,1,4.3-4.42C28.77,91.78,37.8,88.2,47.91,87.8Z"/><path class="cls-29" d="M47.92,88c20-.8,36.82,11.27,37.44,27A23.12,23.12,0,0,1,83,126.19a27.11,27.11,0,0,1-3.15,5v-.26H21.06V101.78H18.32a30.92,30.92,0,0,1,4.26-4.39A41.87,41.87,0,0,1,47.92,88Z"/><path class="cls-30" d="M47.93,88.28c19.88-.79,36.5,11.18,37.12,26.74a22.92,22.92,0,0,1-2.39,11.09A27.33,27.33,0,0,1,79.54,131v-.14H21.06v-29H18.58a31.51,31.51,0,0,1,4.23-4.35A41.52,41.52,0,0,1,47.93,88.28Z"/><path class="cls-31" d="M47.94,88.53c19.71-.79,36.19,11.08,36.8,26.51a22.59,22.59,0,0,1-2.37,11,26.06,26.06,0,0,1-3.1,4.88H21.06V102H18.84A30.94,30.94,0,0,1,23,97.72,41.06,41.06,0,0,1,47.94,88.53Z"/><path class="cls-32" d="M48,88.77c19.54-.78,35.87,11,36.49,26.28a22.71,22.71,0,0,1-2.35,10.89A27.06,27.06,0,0,1,79,130.78a28.56,28.56,0,0,1-2,2.21v-2.1h-56V102.15h-2a31.58,31.58,0,0,1,4.16-4.27A40.71,40.71,0,0,1,48,88.77Z"/><path class="cls-33" d="M48,89c19.37-.78,35.56,10.89,36.17,26.05a22.45,22.45,0,0,1-2.33,10.8,26.52,26.52,0,0,1-3,4.79,28.51,28.51,0,0,1-1.93,2.19v-2H21.06V102.28h-1.7A31.65,31.65,0,0,1,23.48,98,40.44,40.44,0,0,1,48,89Z"/><path class="cls-34" d="M48,89.25c19.2-.77,35.25,10.79,35.85,25.82a22.14,22.14,0,0,1-2.31,10.7,26.33,26.33,0,0,1-3,4.76c-.6.74-1.24,1.47-1.92,2.17v-1.81H21.06V102.4H19.63a29.84,29.84,0,0,1,4.08-4.19A40,40,0,0,1,48,89.25Z"/><path class="cls-35" d="M48,89.49c19-.76,34.93,10.7,35.53,25.6a22,22,0,0,1-2.29,10.6,25.79,25.79,0,0,1-3,4.71c-.59.74-1.23,1.46-1.9,2.15v-1.66H21.1v1.79a25,25,0,0,1-3.36-4.45h3.32v-25.7H19.89a29.41,29.41,0,0,1,4.05-4.16A39.71,39.71,0,0,1,48,89.49Z"/><path class="cls-36" d="M48,89.74C66.84,89,82.61,100.34,83.2,115.1a21.76,21.76,0,0,1-2.27,10.51,25.52,25.52,0,0,1-3,4.67c-.58.73-1.21,1.44-1.88,2.13v-1.52H21.35v1.65A25.41,25.41,0,0,1,18,128.13h3V102.65h-.91a29.94,29.94,0,0,1,4-4.12A39.31,39.31,0,0,1,48,89.74Z"/><path class="cls-37" d="M48,90c18.68-.75,34.3,10.5,34.89,25.13a21.62,21.62,0,0,1-2.25,10.42,25.53,25.53,0,0,1-2.94,4.62c-.58.73-1.2,1.43-1.86,2.12v-1.38H21.6v1.5A25.45,25.45,0,0,1,18.3,128h2.76V102.78h-.65a28.94,28.94,0,0,1,4-4.09A39,39,0,0,1,48,90Z"/><path class="cls-38" d="M48,90.22c18.51-.74,34,10.41,34.57,24.9.29,7.25-3.2,14-9.08,18.95v-3.18H21.85v1.36a25.06,25.06,0,0,1-3.27-4.34h2.48V107.48h-3.3a27.24,27.24,0,0,1,6.85-8.63A38.62,38.62,0,0,1,48,90.22Z"/><path class="cls-39" d="M48,90.46c18.34-.73,33.68,10.32,34.25,24.67.29,7.18-3.17,13.83-9,18.78v-3H22.1v1.21a24.54,24.54,0,0,1-3.24-4.29h2.2V107.57h-3A26.78,26.78,0,0,1,24.84,99,38.24,38.24,0,0,1,48,90.46Z"/><path class="cls-40" d="M48,90.71C66.2,90,81.39,100.92,82,115.15c.29,7.11-3.14,13.7-8.91,18.6v-2.86H22.35V132a25,25,0,0,1-3.21-4.26h1.92v-20H18.34a26.51,26.51,0,0,1,6.72-8.47A37.88,37.88,0,0,1,48,90.71Z"/><path class="cls-41" d="M48,91c18-.72,33.05,10.12,33.61,24.21.28,7-3.11,13.57-8.82,18.42v-2.69H22.6v.92a25,25,0,0,1-3.18-4.21h1.64V107.73H18.63a26.27,26.27,0,0,1,6.66-8.39A37.55,37.55,0,0,1,48,91Z"/><path class="cls-42" d="M48.05,91.19c17.83-.71,32.73,10,33.29,24,.28,7-3.08,13.44-8.74,18.25v-2.53H22.85v.78a24.62,24.62,0,0,1-3.15-4.18h1.36V107.82H18.92a25.93,25.93,0,0,1,6.6-8.31A37.17,37.17,0,0,1,48.05,91.19Z"/><path class="cls-43" d="M48.06,91.43c17.66-.7,32.42,9.93,33,23.76.28,6.91-3,13.31-8.65,18.07v-2.37H23.1v.63A23.59,23.59,0,0,1,20,127.38h1.07V107.9H19.21a25.65,25.65,0,0,1,6.53-8.23A36.84,36.84,0,0,1,48.06,91.43Z"/><path class="cls-44" d="M48.07,91.67c17.49-.7,32.11,9.84,32.65,23.53.28,6.84-3,13.18-8.57,17.9v-2.21H23.36v.48a23.13,23.13,0,0,1-3.09-4.09h.79V108H19.5A25.42,25.42,0,0,1,26,99.83,36.49,36.49,0,0,1,48.07,91.67Z"/><path class="cls-45" d="M48.08,91.92c17.31-.7,31.79,9.73,32.33,23.29.27,6.78-3,13.06-8.49,17.72v-2H23.61v.34a23.24,23.24,0,0,1-3.06-4.06h.51V108.06H19.78A25.31,25.31,0,0,1,26.19,100,36.08,36.08,0,0,1,48.08,91.92Z"/><path class="cls-46" d="M48.09,92.16c17.14-.69,31.48,9.64,32,23.06.27,6.71-3,12.93-8.4,17.55v-1.88H23.86v.19a22.72,22.72,0,0,1-3-4h.23V117.7H18c-.27-6.71,3-12.92,8.41-17.55A35.73,35.73,0,0,1,48.09,92.16Z"/><path class="cls-47" d="M48.09,92.4c17-.68,31.17,9.54,31.71,22.83.26,6.65-2.94,12.8-8.33,17.38v-1.72H24.11v.05a23.2,23.2,0,0,1-3-4,19.57,19.57,0,0,1-2.79-9.27C17.79,104.4,31.12,93.08,48.09,92.4Z"/><path class="cls-48" d="M48.1,92.64C64.91,92,79,102.09,79.49,115.25c.26,6.57-2.91,12.67-8.24,17.2v-1.56h-43v3.28c-5.68-4.09-9.33-9.91-9.59-16.49C18.1,104.52,31.3,93.31,48.1,92.64Z"/><path class="cls-49" d="M48.12,92.88c16.63-.66,30.54,9.36,31.06,22.38.26,6.51-2.88,12.54-8.16,17v-1.39H28.43V134c-5.62-4.05-9.23-9.81-9.49-16.32C18.42,104.64,31.48,93.55,48.12,92.88Z"/><path class="cls-50" d="M48.12,93.13c16.47-.66,30.23,9.25,30.75,22.14.26,6.45-2.85,12.41-8.07,16.85v-1.23H28.64v2.92c-5.56-4-9.13-9.71-9.39-16.15C18.73,104.77,31.66,93.78,48.12,93.13Z"/><path class="cls-51" d="M48.13,93.37c16.3-.65,29.92,9.16,30.43,21.91.25,6.38-2.82,12.29-8,16.68v-1.07H28.85v2.74c-5.5-4-9-9.61-9.29-16C19.05,104.89,31.84,94,48.13,93.37Z"/><path class="cls-52" d="M48.14,93.61c16.12-.64,29.6,9.06,30.11,21.69.25,6.31-2.79,12.15-7.9,16.5v-.91H29.06v2.56c-5.45-3.92-8.94-9.51-9.19-15.82C19.36,105,32,94.26,48.14,93.61Z"/><path class="cls-53" d="M48.15,93.85c15.95-.63,29.29,9,29.79,21.46.25,6.24-2.76,12-7.82,16.32v-.74H29.27v2.38c-5.38-3.88-8.84-9.41-9.09-15.65C19.68,105.13,32.2,94.49,48.15,93.85Z"/><path class="cls-54" d="M48.16,94.1c15.78-.64,29,8.87,29.47,21.22.25,6.18-2.73,11.9-7.74,16.15v-.58H29.49v2.2c-5.34-3.84-8.76-9.31-9-15.48C20,105.25,32.38,94.73,48.16,94.1Z"/><path class="cls-55" d="M48.17,94.34c15.61-.63,28.66,8.77,29.15,21,.25,6.11-2.7,11.77-7.65,16v-.42h-40v2c-5.28-3.8-8.66-9.21-8.9-15.32C20.31,105.37,32.56,95,48.17,94.34Z"/><path class="cls-56" d="M48.18,94.58C63.62,94,76.53,103.26,77,115.35c.24,6-2.67,11.64-7.57,15.8v-.26H29.91v1.84c-5.22-3.76-8.56-9.1-8.81-15.15C20.62,105.5,32.74,95.2,48.18,94.58Z"/><path class="cls-57" d="M48.19,94.82c15.27-.61,28,8.58,28.51,20.54.24,6-2.64,11.51-7.48,15.62v-.09H30.12v1.66c-5.16-3.72-8.47-9-8.71-15C20.94,105.62,32.92,95.43,48.19,94.82Z"/><path class="cls-58" d="M48.2,95.06c15.1-.6,27.72,8.49,28.19,20.31.24,5.91-2.61,11.38-7.4,15.45a27,27,0,0,1-3.94,2.78v-2.71H30.33v1.48c-5.1-3.68-8.37-8.9-8.61-14.81C21.25,105.74,33.11,95.67,48.2,95.06Z"/><path class="cls-59" d="M48.21,95.31c14.93-.6,27.41,8.39,27.87,20.07.24,5.85-2.58,11.26-7.31,15.28a26.91,26.91,0,0,1-3.9,2.74v-2.51H30.55v1.3c-5.05-3.63-8.29-8.8-8.52-14.65C21.57,105.86,33.29,95.9,48.21,95.31Z"/><path class="cls-60" d="M48.22,95.55C63,95,75.31,103.84,75.77,115.39c.24,5.78-2.55,11.13-7.23,15.11a27,27,0,0,1-3.85,2.71v-2.32H30.76V132c-5-3.59-8.19-8.7-8.42-14.48C21.88,106,33.47,96.14,48.22,95.55Z"/><path class="cls-61" d="M48.23,95.79C62.82,95.21,75,104,75.47,115.41c.22,5.71-2.53,11-7.15,14.93A27,27,0,0,1,64.51,133v-2.13H31v.94c-4.93-3.55-8.09-8.6-8.32-14.31C22.19,106.1,33.65,96.37,48.23,95.79Z"/><path class="cls-62" d="M48.24,96c14.41-.58,26.46,8.11,26.92,19.39.22,5.64-2.5,10.87-7.07,14.75a25.8,25.8,0,0,1-3.76,2.65v-1.93H31.18v.76c-4.87-3.51-8-8.5-8.22-14.14C22.51,106.22,33.83,96.61,48.24,96Z"/><path class="cls-63" d="M48.25,96.27c14.24-.57,26.15,8,26.6,19.16.22,5.58-2.47,10.74-7,14.58a25.69,25.69,0,0,1-3.71,2.62v-1.74H31.39v.58c-4.81-3.47-7.9-8.4-8.12-14C22.82,106.35,34,96.84,48.25,96.27Z"/><path class="cls-64" d="M48.26,96.52c14.07-.57,25.84,7.91,26.28,18.92.22,5.51-2.44,10.61-6.9,14.41A25.62,25.62,0,0,1,64,132.43v-1.54H31.61v.4c-4.76-3.43-7.81-8.3-8-13.81C23.14,106.47,34.19,97.08,48.26,96.52Z"/><path class="cls-65" d="M48.27,96.76c13.9-.56,25.52,7.81,26,18.7.22,5.44-2.4,10.48-6.82,14.23a25.29,25.29,0,0,1-3.63,2.55v-1.35h-32v.22c-4.7-3.39-7.71-8.2-7.93-13.64C23.45,106.59,34.37,97.31,48.27,96.76Z"/><path class="cls-66" d="M48.28,97c13.73-.55,25.21,7.72,25.64,18.47.21,5.37-2.37,10.35-6.73,14.05A26.31,26.31,0,0,1,59.45,134v-3.12H32v0c-4.64-3.34-7.62-8.1-7.83-13.47C23.77,106.71,34.55,97.55,48.28,97Z"/><path class="cls-67" d="M48.29,97.24c13.56-.54,24.89,7.62,25.32,18.24.21,5.31-2.34,10.22-6.65,13.88a25.76,25.76,0,0,1-7.64,4.43v-2.9H36V133a24.89,24.89,0,0,1-3.73-2.2c-4.58-3.3-7.52-8-7.73-13.3C24.08,106.83,34.73,97.78,48.29,97.24Z"/><path class="cls-68" d="M48.3,97.48c13.39-.53,24.58,7.53,25,18,.21,5.24-2.31,10.1-6.56,13.71a25.48,25.48,0,0,1-7.55,4.37v-2.68H36.13v1.85a24.73,24.73,0,0,1-3.68-2.17c-4.52-3.26-7.43-7.9-7.63-13.14C24.4,107,34.91,98,48.3,97.48Z"/><path class="cls-69" d="M48.31,97.73c13.22-.53,24.27,7.43,24.68,17.78.21,5.17-2.28,10-6.48,13.53a25.39,25.39,0,0,1-7.45,4.32v-2.47H40.43v3.21a25,25,0,0,1-7.76-3.71c-4.47-3.22-7.34-7.8-7.54-13C24.71,107.07,35.09,98.26,48.31,97.73Z"/><path class="cls-70" d="M48.32,98c13-.52,23.95,7.34,24.36,17.55.21,5.11-2.25,9.84-6.39,13.35a25.11,25.11,0,0,1-7.35,4.27v-2.25H40.54v3a24.7,24.7,0,0,1-7.66-3.66c-4.41-3.18-7.24-7.69-7.45-12.8C25,107.19,35.27,98.49,48.32,98Z"/><path class="cls-71" d="M48.33,98.21c12.87-.51,23.64,7.24,24,17.32.2,5-2.22,9.71-6.31,13.18a24.45,24.45,0,0,1-7.26,4.21v-2H40.66v2.75A24.34,24.34,0,0,1,33.09,130c-4.35-3.14-7.14-7.59-7.35-12.63C25.34,107.32,35.45,98.73,48.33,98.21Z"/><path class="cls-72" d="M48.34,98.45c12.7-.51,23.32,7.15,23.72,17.09.2,5-2.19,9.58-6.22,13a24.37,24.37,0,0,1-7.16,4.15v-1.81H40.77v2.53a24.15,24.15,0,0,1-7.47-3.57c-4.29-3.09-7-7.49-7.25-12.47C25.66,107.44,35.63,99,48.34,98.45Z"/><path class="cls-73" d="M48.35,98.7c12.53-.51,23,7,23.4,16.86.2,4.9-2.16,9.45-6.14,12.82a23.94,23.94,0,0,1-7.06,4.1v-1.59H40.88v2.3a24.06,24.06,0,0,1-7.37-3.52c-4.23-3-6.95-7.39-7.15-12.3C26,107.56,35.81,99.2,48.35,98.7Z"/><path class="cls-74" d="M48.36,98.94c12.36-.5,22.7,7,23.08,16.63S62.12,133.49,49.76,134v-3.1H41V133a23.52,23.52,0,0,1-7.27-3.47c-4.17-3-6.85-7.29-7-12.13C26.28,107.68,36,99.43,48.36,98.94Z"/><path class="cls-75" d="M48.37,99.18c12.19-.49,22.38,6.85,22.77,16.4s-9.2,17.68-21.39,18.17a25.47,25.47,0,0,1-15.82-4.44c-4.11-3-6.76-7.19-6.95-12C26.6,107.8,36.17,99.67,48.37,99.18Z"/><path class="cls-76" d="M48.38,99.42c12-.48,22.07,6.76,22.45,16.17S61.76,133,49.74,133.51s-22.07-6.76-22.45-16.18S36.35,99.9,48.38,99.42Z"/><path class="cls-77" d="M48.39,99.66c11.85-.47,21.75,6.67,22.13,15.94s-8.94,17.19-20.79,17.66S28,126.6,27.6,117.32,36.53,100.14,48.39,99.66Z"/><path class="cls-78" d="M48.4,99.91c11.68-.47,21.44,6.56,21.81,15.71S61.4,132.55,49.72,133s-21.44-6.57-21.81-15.71S36.72,100.37,48.4,99.91Z"/><path class="cls-79" d="M48.41,100.15c11.5-.46,21.13,6.47,21.49,15.48s-8.68,16.69-20.19,17.15-21.13-6.47-21.49-15.48S36.9,100.61,48.41,100.15Z"/><path class="cls-80" d="M48.42,100.39c11.33-.45,20.81,6.38,21.17,15.25S61,132.08,49.7,132.54s-20.82-6.38-21.17-15.26S37.08,100.84,48.42,100.39Z"/><path class="cls-81" d="M48.42,100.63c11.17-.44,20.51,6.28,20.86,15s-8.42,16.19-19.59,16.63-20.5-6.27-20.85-15S37.26,101.08,48.42,100.63Z"/><path class="cls-82" d="M48.43,100.87c11-.44,20.19,6.19,20.54,14.8s-8.29,15.94-19.29,16.38-20.19-6.18-20.53-14.79S37.44,101.31,48.43,100.87Z"/><path class="cls-83" d="M48.44,101.12c10.83-.44,19.88,6.08,20.22,14.56s-8.16,15.7-19,16.13-19.87-6.09-20.21-14.56S37.62,101.55,48.44,101.12Z"/><path class="cls-84" d="M48.45,101.36c10.66-.43,19.57,6,19.9,14.33s-8,15.45-18.69,15.88-19.56-6-19.89-14.34S37.8,101.78,48.45,101.36Z"/><path class="cls-85" d="M48.46,101.6C59,101.18,67.71,107.5,68,115.7s-7.9,15.21-18.39,15.63-19.25-5.9-19.58-14.11S38,102,48.46,101.6Z"/><path class="cls-86" d="M48.47,101.84c10.32-.41,18.94,5.8,19.26,13.88S60,130.67,49.64,131.08s-18.93-5.79-19.26-13.87S38.16,102.26,48.47,101.84Z"/><path class="cls-86" d="M48.48,102.09c10.15-.41,18.63,5.7,18.94,13.64s-7.64,14.71-17.79,15.11S31,125.14,30.69,117.2,38.34,102.49,48.48,102.09Z"/><path class="cls-87" d="M48.49,102.24c10-.41,18.43,5.64,18.74,13.5s-7.57,14.55-17.6,15-18.43-5.64-18.75-13.5S38.45,102.64,48.49,102.24Z"/><path class="cls-88" d="M48.5,102.38C58.43,102,66.73,108,67,115.74s-7.49,14.4-17.42,14.8S31.39,125,31.07,117.18,38.56,102.78,48.5,102.38Z"/><path class="cls-89" d="M48.5,102.53c9.83-.39,18,5.53,18.35,13.22S59.44,130,49.61,130.39s-18-5.52-18.34-13.22S38.68,102.93,48.5,102.53Z"/><path class="cls-90" d="M48.51,102.68c9.72-.38,17.84,5.47,18.15,13.08s-7.33,14.09-17,14.48-17.85-5.46-18.15-13.07S38.79,103.07,48.51,102.68Z"/><path class="cls-91" d="M48.51,102.83c9.62-.38,17.66,5.41,18,12.94s-7.25,13.94-16.87,14.32-17.65-5.4-18-12.93S38.9,103.22,48.51,102.83Z"/><path class="cls-92" d="M48.52,103C58,102.6,66,108.33,66.28,115.77s-7.17,13.79-16.68,14.17-17.46-5.34-17.76-12.79S39,103.36,48.52,103Z"/><path class="cls-93" d="M48.53,103.13c9.4-.37,17.26,5.29,17.56,12.65s-7.1,13.64-16.5,14S32.33,124.51,32,117.15,39.12,103.51,48.53,103.13Z"/><path class="cls-94" d="M48.53,103.28c9.3-.37,17.07,5.23,17.36,12.51s-7,13.48-16.31,13.85-17.07-5.22-17.36-12.5S39.23,103.65,48.53,103.28Z"/><path class="cls-95" d="M48.54,103.43c9.19-.36,16.87,5.17,17.16,12.37s-6.93,13.33-16.12,13.69-16.88-5.16-17.17-12.36S39.34,103.8,48.54,103.43Z"/><path class="cls-96" d="M48.54,103.58c9.09-.36,16.69,5.11,17,12.23S58.66,129,49.57,129.34s-16.68-5.1-17-12.22S39.46,104,48.54,103.58Z"/><path class="cls-97" d="M48.55,103.73c9-.36,16.49,5,16.77,12.08s-6.77,13-15.75,13.38-16.49-5-16.77-12.08S39.57,104.09,48.55,103.73Z"/><path class="cls-98" d="M48.56,103.88c8.87-.35,16.29,5,16.57,11.94S58.44,128.69,49.56,129s-16.29-5-16.57-11.93S39.68,104.24,48.56,103.88Z"/><path class="cls-99" d="M48.56,104c8.77-.35,16.1,4.93,16.38,11.8s-6.61,12.71-15.39,13.07S33.45,124,33.18,117.1,39.79,104.38,48.56,104Z"/><path class="cls-100" d="M48.57,104.18c8.66-.34,15.9,4.87,16.18,11.66s-6.54,12.56-15.2,12.9-15.91-4.87-16.18-11.65S39.9,104.53,48.57,104.18Z"/><path class="cls-101" d="M48.57,104.33c8.56-.34,15.72,4.81,16,11.51s-6.45,12.41-15,12.76-15.71-4.82-16-11.52S40,104.67,48.57,104.33Z"/><path class="cls-102" d="M48.58,104.48c8.45-.34,15.52,4.75,15.78,11.37S58,128.11,49.54,128.44,34,123.69,33.75,117.08,40.13,104.82,48.58,104.48Z"/><path class="cls-103" d="M48.59,104.63c8.34-.33,15.32,4.69,15.58,11.23S57.88,128,49.53,128.29s-15.32-4.69-15.59-11.22S40.24,105,48.59,104.63Z"/><path class="cls-104" d="M48.59,104.78c8.24-.33,15.13,4.64,15.39,11.09s-6.21,11.95-14.45,12.28-15.14-4.64-15.39-11.09S40.35,105.11,48.59,104.78Z"/><path class="cls-105" d="M48.6,104.93c8.13-.32,14.93,4.57,15.19,10.95S57.66,127.67,49.52,128s-14.94-4.58-15.19-11S40.46,105.26,48.6,104.93Z"/><path class="cls-106" d="M48.6,105.08c8-.32,14.75,4.52,15,10.8s-6.06,11.64-14.09,12-14.74-4.52-15-10.81S40.57,105.4,48.6,105.08Z"/><path class="cls-107" d="M48.61,105.23c7.92-.32,14.55,4.46,14.8,10.66s-6,11.49-13.9,11.81S35,123.24,34.71,117,40.68,105.55,48.61,105.23Z"/><path class="cls-108" d="M48.62,105.38c7.81-.31,14.35,4.4,14.59,10.52s-5.89,11.33-13.71,11.65S35.15,123.15,34.9,117,40.8,105.69,48.62,105.38Z"/><path class="cls-109" d="M48.62,105.53c7.71-.31,14.16,4.34,14.4,10.37s-5.81,11.19-13.52,11.5S35.33,123.06,35.09,117,40.91,105.84,48.62,105.53Z"/><path class="cls-110" d="M48.63,105.68c7.6-.3,14,4.28,14.2,10.23s-5.73,11-13.34,11.34S35.52,123,35.28,117,41,106,48.63,105.68Z"/><path class="cls-111" d="M48.63,105.83c7.5-.3,13.78,4.22,14,10.09S57,126.8,49.48,127.1s-13.77-4.22-14-10.09S41.13,106.13,48.63,105.83Z"/><path class="cls-112" d="M48.64,106c7.4-.3,13.58,4.16,13.81,10s-5.58,10.72-13,11-13.58-4.16-13.81-10S41.24,106.27,48.64,106Z"/><path class="cls-113" d="M48.64,106.13c7.29-.29,13.39,4.1,13.62,9.8s-5.5,10.58-12.79,10.87S36.09,122.7,35.86,117,41.35,106.42,48.64,106.13Z"/><path class="cls-114" d="M48.65,106.28c7.19-.29,13.19,4,13.42,9.66s-5.42,10.42-12.6,10.71-13.2-4-13.42-9.67S41.47,106.57,48.65,106.28Z"/><path class="cls-115" d="M48.66,106.43c7.08-.28,13,4,13.22,9.52s-5.34,10.27-12.42,10.55-13-4-13.22-9.52S41.58,106.71,48.66,106.43Z"/><path class="cls-116" d="M48.66,106.58c7-.28,12.81,3.92,13,9.38s-5.25,10.11-12.23,10.39-12.8-3.92-13-9.38S41.69,106.86,48.66,106.58Z"/><path class="cls-117" d="M48.67,106.73c6.87-.28,12.61,3.86,12.82,9.24s-5.17,10-12,10.23S36.84,122.34,36.62,117,41.8,107,48.67,106.73Z"/><path class="cls-118" d="M48.67,106.88c6.77-.27,12.42,3.8,12.63,9.09s-5.1,9.81-11.86,10.08S37,122.25,36.81,117,41.91,107.15,48.67,106.88Z"/><path class="cls-119" d="M48.68,107c6.66-.27,12.22,3.74,12.43,9s-5,9.65-11.67,9.92S37.21,122.16,37,117,42,107.29,48.68,107Z"/><path class="cls-120" d="M48.69,107.18c6.55-.26,12,3.68,12.23,8.81s-4.94,9.5-11.49,9.76-12-3.68-12.23-8.81S42.14,107.44,48.69,107.18Z"/><path class="cls-121" d="M48.69,107.33c6.45-.26,11.84,3.62,12,8.67s-4.86,9.34-11.31,9.6-11.83-3.62-12-8.67S42.25,107.59,48.69,107.33Z"/><ellipse class="cls-122" cx="49.06" cy="116.46" rx="11.49" ry="8.99" transform="translate(-4.63 2.06) rotate(-2.3)"/><path class="cls-123" d="M48.7,107.63c6.24-.25,11.45,3.5,11.64,8.38s-4.69,9-10.93,9.29S38,121.79,37.77,116.92,42.47,107.88,48.7,107.63Z"/><path class="cls-124" d="M48.71,107.78c6.13-.25,11.25,3.44,11.44,8.24s-4.62,8.88-10.74,9.13S38.15,121.7,38,116.91,42.58,108,48.71,107.78Z"/><path class="cls-125" d="M48.72,107.93c6-.25,11.05,3.38,11.24,8.1s-4.54,8.73-10.56,9-11.06-3.38-11.25-8.1S42.69,108.17,48.72,107.93Z"/><path class="cls-126" d="M48.72,108.08c5.92-.24,10.87,3.32,11.05,8s-4.46,8.57-10.38,8.81-10.86-3.33-11-8S42.81,108.31,48.72,108.08Z"/><ellipse class="cls-127" cx="49.06" cy="116.46" rx="10.53" ry="8.24" transform="translate(-4.61 2.05) rotate(-2.29)"/><path class="cls-128" d="M48.73,108.38c5.71-.23,10.48,3.2,10.66,7.67s-4.3,8.27-10,8.5-10.47-3.21-10.65-7.67S43,108.6,48.73,108.38Z"/><path class="cls-129" d="M48.74,108.53c5.6-.23,10.28,3.14,10.46,7.53s-4.22,8.12-9.82,8.34-10.29-3.15-10.46-7.53S43.14,108.75,48.74,108.53Z"/><path class="cls-130" d="M48.75,108.67c5.49-.22,10.08,3.09,10.26,7.4s-4.15,8-9.64,8.18-10.09-3.09-10.26-7.39S43.25,108.89,48.75,108.67Z"/><path class="cls-131" d="M48.75,108.83c5.39-.22,9.9,3,10.06,7.24s-4.06,7.82-9.45,8-9.89-3-10.06-7.25S43.36,109,48.75,108.83Z"/><path class="cls-132" d="M48.76,109c5.28-.22,9.7,3,9.86,7.1s-4,7.66-9.26,7.87-9.7-3-9.87-7.1S43.48,109.19,48.76,109Z"/><path class="cls-133" d="M48.76,109.12c5.18-.2,9.51,2.92,9.67,7s-3.9,7.51-9.08,7.71-9.5-2.91-9.67-7S43.59,109.33,48.76,109.12Z"/><path class="cls-134" d="M48.77,109.27c5.07-.2,9.31,2.86,9.47,6.83s-3.82,7.35-8.89,7.55-9.32-2.85-9.48-6.82S43.7,109.48,48.77,109.27Z"/><path class="cls-135" d="M48.78,109.42c5-.2,9.11,2.8,9.27,6.68s-3.75,7.2-8.71,7.4-9.12-2.79-9.27-6.68S43.81,109.62,48.78,109.42Z"/><path class="cls-136" d="M48.78,109.57c4.86-.19,8.93,2.74,9.08,6.54s-3.67,7-8.53,7.24-8.92-2.73-9.07-6.54S43.92,109.77,48.78,109.57Z"/><path class="cls-137" d="M48.79,109.72c4.75-.19,8.73,2.68,8.88,6.4s-3.59,6.89-8.34,7.08-8.73-2.67-8.88-6.39S44,109.91,48.79,109.72Z"/><path class="cls-138" d="M48.79,109.87c4.65-.18,8.54,2.62,8.68,6.26s-3.5,6.74-8.15,6.92-8.53-2.61-8.68-6.25S44.15,110.06,48.79,109.87Z"/><path class="cls-139" d="M48.8,110c4.54-.18,8.34,2.56,8.48,6.11s-3.42,6.59-8,6.77-8.35-2.55-8.49-6.11S44.26,110.21,48.8,110Z"/><path class="cls-140" d="M48.81,110.17c4.43-.17,8.14,2.5,8.28,6s-3.34,6.44-7.78,6.61-8.15-2.49-8.29-6S44.37,110.35,48.81,110.17Z"/><path class="cls-141" d="M48.81,110.32c4.33-.17,8,2.44,8.09,5.83s-3.26,6.28-7.6,6.45-7.95-2.43-8.09-5.82S44.48,110.5,48.81,110.32Z"/><path class="cls-142" d="M48.82,110.47c4.22-.17,7.76,2.38,7.89,5.69s-3.19,6.12-7.41,6.29-7.76-2.37-7.89-5.68S44.59,110.64,48.82,110.47Z"/><path class="cls-143" d="M48.82,110.62c4.13-.16,7.57,2.32,7.7,5.55s-3.11,6-7.23,6.14-7.56-2.32-7.69-5.55S44.7,110.79,48.82,110.62Z"/><path class="cls-144" d="M48.83,110.77c4-.16,7.37,2.26,7.5,5.4s-3,5.82-7,6-7.38-2.26-7.5-5.41S44.81,110.93,48.83,110.77Z"/><path class="cls-145" d="M48.84,110.92c3.91-.15,7.17,2.2,7.3,5.26s-3,5.67-6.86,5.82-7.18-2.19-7.3-5.25S44.93,111.08,48.84,110.92Z"/><path class="cls-146" d="M48.84,111.07c3.81-.15,7,2.14,7.11,5.12s-2.87,5.51-6.68,5.67-7-2.14-7.1-5.12S45,111.22,48.84,111.07Z"/><path class="cls-147" d="M48.85,111.22c3.7-.15,6.79,2.08,6.9,5s-2.78,5.36-6.48,5.5-6.79-2.07-6.91-5S45.15,111.37,48.85,111.22Z"/><path class="cls-148" d="M48.85,111.37c3.6-.14,6.6,2,6.71,4.83s-2.71,5.21-6.3,5.36-6.59-2-6.71-4.84S45.26,111.52,48.85,111.37Z"/><path class="cls-149" d="M48.86,111.52c3.49-.14,6.4,2,6.51,4.69s-2.63,5.06-6.11,5.2-6.41-2-6.52-4.69S45.37,111.66,48.86,111.52Z"/><path class="cls-150" d="M48.87,111.67c3.38-.13,6.2,1.9,6.31,4.55s-2.55,4.9-5.93,5-6.21-1.91-6.31-4.55S45.49,111.81,48.87,111.67Z"/><path class="cls-151" d="M48.87,111.82c3.28-.13,6,1.84,6.12,4.41s-2.47,4.75-5.75,4.88-6-1.84-6.11-4.41S45.6,112,48.87,111.82Z"/><path class="cls-152" d="M48.88,112c3.17-.13,5.82,1.78,5.92,4.26s-2.39,4.6-5.56,4.73-5.82-1.79-5.92-4.27S45.71,112.1,48.88,112Z"/><path class="cls-153" d="M48.88,112.12c3.07-.12,5.63,1.72,5.72,4.12s-2.3,4.44-5.37,4.57-5.62-1.73-5.72-4.13S45.82,112.24,48.88,112.12Z"/><path class="cls-154" d="M48.89,112.27c3-.12,5.43,1.66,5.52,4s-2.23,4.29-5.18,4.41-5.44-1.67-5.53-4S45.93,112.39,48.89,112.27Z"/><path class="cls-155" d="M48.9,112.42c2.85-.11,5.24,1.6,5.32,3.84s-2.15,4.13-5,4.25-5.24-1.61-5.33-3.84S46,112.53,48.9,112.42Z"/><path class="cls-156" d="M48.9,112.57c2.75-.11,5.05,1.54,5.13,3.69s-2.07,4-4.82,4.1-5-1.55-5.13-3.7S46.16,112.68,48.9,112.57Z"/><path class="cls-157" d="M48.91,112.72c2.64-.11,4.85,1.48,4.93,3.55s-2,3.83-4.63,3.94-4.85-1.49-4.93-3.56S46.27,112.82,48.91,112.72Z"/><path class="cls-158" d="M48.91,112.87c2.54-.1,4.66,1.42,4.74,3.41s-1.91,3.68-4.45,3.78-4.65-1.43-4.73-3.41S46.38,113,48.91,112.87Z"/><path class="cls-159" d="M48.92,113c2.43-.1,4.46,1.37,4.54,3.27s-1.84,3.52-4.26,3.62-4.47-1.37-4.54-3.27S46.49,113.12,48.92,113Z"/><path class="cls-160" d="M48.93,113.17c2.32-.09,4.26,1.3,4.34,3.12s-1.76,3.37-4.08,3.47-4.27-1.31-4.34-3.13S46.6,113.26,48.93,113.17Z"/><path class="cls-161" d="M48.93,113.32c2.22-.09,4.08,1.25,4.15,3s-1.68,3.22-3.9,3.31-4.07-1.25-4.14-3S46.71,113.41,48.93,113.32Z"/><path class="cls-162" d="M48.94,113.47c2.11-.09,3.88,1.19,3.94,2.84s-1.59,3.06-3.7,3.15-3.88-1.19-4-2.84S46.82,113.55,48.94,113.47Z"/><path class="cls-163" d="M48.94,113.62c2-.08,3.69,1.13,3.75,2.7s-1.51,2.91-3.52,3-3.68-1.13-3.75-2.7S46.94,113.7,48.94,113.62Z"/><path class="cls-164" d="M49,113.77c1.9-.08,3.49,1.07,3.55,2.56s-1.43,2.75-3.33,2.83-3.5-1.07-3.56-2.56S47.05,113.84,49,113.77Z"/><path class="cls-165" d="M49,113.92c1.79-.07,3.29,1,3.35,2.41S51,118.94,49.16,119s-3.3-1-3.35-2.42S47.16,114,49,113.92Z"/><path class="cls-166" d="M49,114.07c1.69-.07,3.11,1,3.16,2.27s-1.28,2.45-3,2.52-3.1-1-3.15-2.27S47.27,114.14,49,114.07Z"/><path class="cls-167" d="M49,114.22c1.58-.07,2.91.89,3,2.13s-1.2,2.3-2.78,2.36-2.91-.89-3-2.13S47.38,114.28,49,114.22Z"/><path class="cls-168" d="M49,114.37a2.16,2.16,0,1,1,.17,4.19,2.16,2.16,0,1,1-.17-4.19Z"/><path class="cls-169" d="M49,114.52a2,2,0,1,1,.16,3.89,2,2,0,1,1-.16-3.89Z"/><path class="cls-170" d="M49,114.67a1.85,1.85,0,1,1-2.23,1.89A2.08,2.08,0,0,1,49,114.67Z"/><path class="cls-171" d="M49,114.82a1.7,1.7,0,1,1-2,1.73A1.91,1.91,0,0,1,49,114.82Z"/><path class="cls-172" d="M49,115a1.54,1.54,0,1,1-1.85,1.57A1.74,1.74,0,0,1,49,115Z"/><path class="cls-173" d="M49,115.12a1.39,1.39,0,1,1-1.66,1.41A1.57,1.57,0,0,1,49,115.12Z"/><path class="cls-174" d="M49,115.27a1.23,1.23,0,1,1-1.48,1.25A1.39,1.39,0,0,1,49,115.27Z"/><path class="cls-175" d="M49,115.41a1.08,1.08,0,1,1,.08,2.1,1.21,1.21,0,0,1-1.38-1A1.23,1.23,0,0,1,49,115.41Z"/><path class="cls-176" d="M49,115.57a.92.92,0,1,1-1.11.94A1,1,0,0,1,49,115.57Z"/><path class="cls-177" d="M49,115.71a.77.77,0,1,1,.06,1.5.87.87,0,0,1-1-.71A.89.89,0,0,1,49,115.71Z"/><path class="cls-178" d="M49,115.86a.7.7,0,0,1,.79.57.69.69,0,0,1-.74.63.62.62,0,1,1,0-1.2Z"/><path class="cls-179" d="M49,116a.52.52,0,0,1,.59.43.52.52,0,0,1-.55.47.47.47,0,1,1,0-.9Z"/><path class="cls-180" d="M49.05,116.16a.35.35,0,0,1,.39.29.34.34,0,0,1-.37.31.36.36,0,0,1-.4-.28A.37.37,0,0,1,49.05,116.16Z"/><path class="cls-181" d="M49.05,116.31c.11,0,.2.06.2.15a.17.17,0,0,1-.19.15.16.16,0,0,1-.19-.14C48.86,116.39,49,116.32,49.05,116.31Z"/></g><path class="cls-182" d="M9.55,33.3C34.77-2.52,82.1-10.81,115.31,15.11c25.34,19.83,35,53.83,26.78,84.66-16.36,11.57-21.18-29.52-27-45.43-5.51-15.44-17.83-35.66-63.2-32,11,2.44,15.36,12.67,8.8,17.42C50.37,47.51,30.9,16.39,7.92,35.55c.6-.75,1-1.49,1.63-2.25Z"/><path class="cls-183" d="M60.38,25.87c6.63,4.2,8.28,11.7,2.84,15.58-10.75,8-31-24.38-55-4.41a24.87,24.87,0,0,1,17.27-8.3C31.34,28.35,47,35.85,55,38.55c8.39,2.67,13.23-6,5.37-12.68Z"/><path class="cls-184" d="M129,88.59c-6.75-16.4-11.63-34.65-23.59-46.34-14.87-14.5-36.14-15.64-45-16.38a24.59,24.59,0,0,0-6.32-2.57c47.25-3.84,60.09,17.22,65.82,33.31,2.75,7.73,5.34,21,9.09,32Z"/><text class="cls-185" transform="translate(156.13 73.1) scale(1.42 1)">W<tspan class="cls-186" x="71.17" y="0">ebsite</tspan></text><text class="cls-187" transform="translate(166.68 122.89) scale(1.14 1)">Online Shopping</text></g></g></svg>